HIERARCHY
ROOT Hips
{
	OFFSET 0.000000 0.000000 0.000000
	CHANNELS 6 Xposition Yposition Zposition Yrotation Xrotation Zrotation 
	JOINT LeftHip
	{
		OFFSET 0.084574 -0.000379 0.000042
		CHANNELS 3 Yrotation Xrotation Zrotation
		JOINT LeftKnee
		{
			OFFSET 0.000000 -0.371916 -0.000010
			CHANNELS 3 Yrotation Xrotation Zrotation
			JOINT LeftAnkle
			{
				OFFSET 0.000000 -0.388967 -0.000125
				CHANNELS 3 Yrotation Xrotation Zrotation
				JOINT LeftToe
				{
					OFFSET 0.000000 -0.067153 0.155206
					CHANNELS 3 Yrotation Xrotation Zrotation
					End Site
					{
						OFFSET 0.000000 0.000000 0.000000
					}
				}
			}
		}
	}
	JOINT RightHip
	{
		OFFSET -0.084574 -0.000358 0.000040
		CHANNELS 3 Yrotation Xrotation Zrotation
		JOINT RightKnee
		{
			OFFSET 0.000000 -0.371916 -0.000010
			CHANNELS 3 Yrotation Xrotation Zrotation
			JOINT RightAnkle
			{
				OFFSET 0.000000 -0.388967 -0.000125
				CHANNELS 3 Yrotation Xrotation Zrotation
				JOINT RightToe
				{
					OFFSET 0.000000 -0.067153 0.155206
					CHANNELS 3 Yrotation Xrotation Zrotation
					End Site
					{
						OFFSET 0.000000 0.000000 0.000000
					}
				}
			}
		}
	}
	JOINT Chest
	{
		OFFSET 0.000000 0.103601 -0.011511
		CHANNELS 3 Yrotation Xrotation Zrotation
		JOINT Chest3
		{
			OFFSET 0.000000 0.195526 -0.009344
			CHANNELS 3 Yrotation Xrotation Zrotation
			JOINT Chest4
			{
				OFFSET 0.000000 0.093421 0.000151
				CHANNELS 3 Yrotation Xrotation Zrotation
				JOINT Neck
				{
					OFFSET 0.000000 0.129410 0.000000
					CHANNELS 3 Yrotation Xrotation Zrotation
					JOINT Head
					{
						OFFSET 0.000000 0.086314 -0.000274
						CHANNELS 3 Yrotation Xrotation Zrotation
						End Site
						{
							OFFSET 0.000000 0.000000 0.000000
						}
					}
				}
				JOINT LeftCollar
				{
					OFFSET 0.026654 0.072451 0.000000
					CHANNELS 3 Yrotation Xrotation Zrotation
					JOINT LeftShoulder
					{
						OFFSET 0.121387 0.000000 0.000000
						CHANNELS 3 Yrotation Xrotation Zrotation
						JOINT LeftElbow
						{
							OFFSET 0.229637 0.000000 0.000000
							CHANNELS 3 Yrotation Xrotation Zrotation
							JOINT LeftWrist
							{
								OFFSET 0.233804 0.000000 0.000162
								CHANNELS 3 Yrotation Xrotation Zrotation
								End Site
								{
									OFFSET 0.000000 0.000000 0.000000
								}
							}
						}
					}
				}
				JOINT RightCollar
				{
					OFFSET -0.026654 0.072451 0.000000
					CHANNELS 3 Yrotation Xrotation Zrotation
					JOINT RightShoulder
					{
						OFFSET -0.121387 0.000000 0.000000
						CHANNELS 3 Yrotation Xrotation Zrotation
						JOINT RightElbow
						{
							OFFSET -0.229637 0.000000 0.000000
							CHANNELS 3 Yrotation Xrotation Zrotation
							JOINT RightWrist
							{
								OFFSET -0.233804 0.000000 0.000162
								CHANNELS 3 Yrotation Xrotation Zrotation
								End Site
								{
									OFFSET 0.000000 0.000000 0.000000
								}
							}
						}
					}
				}
			}
		}
	}
}
MOTION
Frames: 10
Frame Time: 0.016667
2.752790 0.836893 4.548800 -160.606336 -1.832369 -0.111916 0.301078 4.330500 7.432136 -0.939030 5.174139 -0.034397 -4.985284 -11.704581 -4.548826 0.000000 -0.000000 0.000000 -0.827702 4.719532 -0.833281 -0.221692 8.235360 0.173400 -8.080578 -11.688489 0.381012 0.000000 -0.000000 0.000000 0.933547 1.902581 -0.004483 0.830350 -4.141070 -0.005528 0.313127 6.466348 0.026882 0.825294 14.047320 2.272128 0.665058 -9.933621 3.957530 -2.584490 3.005790 -3.786096 16.637380 -20.808432 -59.363854 -32.109974 -63.923724 -83.529987 10.436692 -16.496988 19.859632 -2.048213 -17.119279 8.854277 -41.919291 4.018451 56.215571 16.557009 43.326996 -10.350192 4.665435 8.053191 4.086184 
2.752798 0.836996 4.549230 -160.688143 -1.798298 -0.107891 0.277013 4.308952 7.410245 -0.909750 5.134320 -0.036733 -4.914247 -11.668413 -4.551064 0.000000 -0.000000 0.000000 -0.846497 4.669769 -0.860534 -0.171872 8.187891 0.184677 -8.031794 -11.647893 0.365820 0.000000 -0.000000 0.000000 1.008762 1.883215 -0.007508 0.897495 -4.158286 -0.008330 0.338363 6.459871 0.028198 0.843993 14.075543 2.219681 0.721506 -9.882520 3.850991 -2.623701 2.790102 -3.655071 14.916517 -22.298076 -57.990813 -36.447231 -64.557008 -81.066162 11.072914 -15.774050 17.971861 -1.927317 -17.009073 8.816108 -41.945572 3.940399 56.246869 16.884018 43.311296 -10.275291 4.642664 8.052443 4.242951 
2.752828 0.837089 4.549629 -160.776505 -1.772085 -0.108985 0.260672 4.291739 7.395482 -0.880998 5.105915 -0.037750 -4.842777 -11.640942 -4.554207 0.000000 -0.000000 0.000000 -0.861917 4.623097 -0.879959 -0.129675 8.151621 0.193850 -7.971823 -11.613735 0.347839 0.000000 -0.000000 0.000000 1.078065 1.862045 -0.006085 0.958975 -4.177102 -0.007156 0.361598 6.452802 0.030825 0.863244 14.115883 2.166624 0.779458 -9.808871 3.742983 -2.650419 2.542289 -3.514479 13.201442 -23.854279 -56.592974 -41.361363 -65.345034 -77.880251 11.266573 -15.202385 16.622255 -1.821933 -16.931870 8.800650 -41.963416 3.871498 56.249344 17.157222 43.288860 -10.215394 4.630661 8.045854 4.363171 
2.752899 0.837167 4.549994 -160.868988 -1.757401 -0.117646 0.259955 4.280676 7.392882 -0.862764 5.089544 -0.038125 -4.770495 -11.624562 -4.560583 0.000000 -0.000000 0.000000 -0.878139 4.579213 -0.887720 -0.103989 8.134553 0.199288 -7.890552 -11.590208 0.323430 0.000000 -0.000000 0.000000 1.139174 1.840330 -0.000244 1.012761 -4.196399 -0.002030 0.382068 6.445561 0.034679 0.883121 14.168362 2.115759 0.837927 -9.712591 3.638790 -2.666818 2.262057 -3.354511 11.442980 -25.445603 -55.109320 -47.320583 -66.226895 -73.509147 10.998809 -14.736952 16.016852 -1.730239 -16.900563 8.816335 -41.968792 3.813537 56.216514 17.351674 43.274116 -10.183926 4.634203 8.035235 4.418579 
2.752992 0.837236 4.550326 -160.968031 -1.750605 -0.131389 0.266963 4.273994 7.397366 -0.845056 5.084596 -0.037226 -4.697777 -11.616869 -4.567892 0.000000 -0.000000 0.000000 -0.891007 4.538472 -0.887673 -0.085908 8.128692 0.202590 -7.798088 -11.573105 0.296240 0.000000 -0.000000 0.000000 1.194361 1.816799 0.010098 1.060869 -4.217305 0.007120 0.400537 6.437728 0.039860 0.903542 14.232911 2.064295 0.897807 -9.593844 3.533223 -2.671189 1.949740 -3.184921 9.674483 -27.102534 -53.588866 -54.211277 -67.063805 -68.044395 10.399894 -14.407775 15.980145 -1.653923 -16.902427 8.854344 -41.965551 3.764893 56.154936 17.492787 43.253076 -10.166635 4.648204 8.019270 4.437305 
2.753053 0.837304 4.550622 -161.068602 -1.748943 -0.147744 0.276161 4.270996 7.401531 -0.818077 5.088564 -0.032905 -4.635172 -11.612274 -4.571288 0.000000 -0.000000 0.000000 -0.889909 4.503443 -0.883821 -0.068010 8.128082 0.204117 -7.716744 -11.558854 0.274885 0.000000 -0.000000 0.000000 1.230723 1.792316 0.028234 1.091525 -4.239046 0.023249 0.412664 6.429603 0.047067 0.931687 14.308395 2.007161 0.974499 -9.454940 3.414015 -2.671936 1.612088 -3.033624 8.029189 -28.755595 -52.143334 -61.118222 -67.829254 -62.359154 9.553112 -14.467197 16.139084 -1.600677 -16.949695 8.912794 -41.934818 3.734722 56.058255 17.604403 43.236300 -10.160555 4.654661 8.008523 4.439009 
2.753056 0.837380 4.550880 -161.170276 -1.753285 -0.167102 0.287195 4.273154 7.402669 -0.775045 5.101011 -0.022382 -4.590050 -11.608782 -4.568192 0.000000 -0.000000 0.000000 -0.867079 4.475780 -0.876335 -0.048662 8.132435 0.203885 -7.655646 -11.546317 0.263055 0.000000 -0.000000 0.000000 1.240507 1.766817 0.057778 1.097500 -4.261679 0.049585 0.415840 6.421173 0.057264 0.972898 14.399420 1.939369 1.079967 -9.287415 3.269772 -2.675965 1.230393 -2.912307 6.520905 -30.383950 -50.752201 -67.779237 -68.671031 -56.683005 8.440307 -15.069606 16.469866 -1.569270 -17.053809 8.994664 -41.856702 3.720938 55.916797 17.674725 43.230766 -10.172504 4.642828 8.010162 4.425491 
2.753026 0.837455 4.551102 -161.273474 -1.762778 -0.189043 0.300424 4.278987 7.403472 -0.722735 5.122368 -0.008448 -4.555036 -11.608392 -4.561208 0.000000 -0.000000 0.000000 -0.830291 4.453822 -0.865094 -0.029494 8.142031 0.201860 -7.605663 -11.536651 0.257022 0.000000 -0.000000 0.000000 1.231441 1.740452 0.095155 1.085999 -4.285072 0.082934 0.412671 6.412475 0.069494 1.021665 14.501321 1.865758 1.201768 -9.099690 3.111900 -2.675711 0.823637 -2.808291 5.144253 -32.022896 -49.444056 -74.667600 -69.488738 -50.585026 7.025146 -16.002932 17.105105 -1.561209 -17.203036 9.097350 -41.750941 3.726064 55.740497 17.715809 43.229574 -10.195273 4.623524 8.017179 4.395009 
2.752982 0.837514 4.551282 -161.374440 -1.772060 -0.209910 0.311373 4.283347 7.404651 -0.671676 5.151430 0.002686 -4.518562 -11.611509 -4.553265 0.000000 -0.000000 0.000000 -0.792234 4.435151 -0.853674 -0.007991 8.151762 0.198353 -7.561718 -11.529734 0.254266 0.000000 -0.000000 0.000000 1.213856 1.714396 0.132862 1.066894 -4.308189 0.116589 0.406647 6.403880 0.081570 1.068941 14.599051 1.796011 1.318872 -8.919449 2.962214 -2.657565 0.455135 -2.713175 4.032389 -33.705115 -48.425226 -81.637769 -70.050994 -44.307545 5.310253 -16.991091 17.901209 -1.588271 -17.374814 9.210615 -41.658416 3.765742 55.552342 17.787289 43.222428 -10.204854 4.611145 8.018744 4.361951 
2.752926 0.837552 4.551421 -161.470261 -1.780356 -0.227330 0.316199 4.282771 7.405242 -0.625754 5.192344 0.008087 -4.476164 -11.618212 -4.545072 0.000000 -0.000000 0.000000 -0.754996 4.419097 -0.843714 0.015113 8.161741 0.192201 -7.524604 -11.525684 0.254800 0.000000 -0.000000 0.000000 1.185802 1.690072 0.169731 1.038562 -4.329767 0.149514 0.397119 6.395857 0.093039 1.113461 14.687693 1.728464 1.429521 -8.755837 2.818056 -2.625518 0.146717 -2.623209 3.352975 -35.518362 -47.822479 -88.159874 -70.406819 -38.463404 3.260259 -18.020426 18.838167 -1.670688 -17.599131 9.349089 -41.584768 3.861290 55.323969 17.926315 43.209879 -10.191802 4.609610 8.018957 4.338457 
